<svg width="26" height="26" viewBox="0 0 26 26" fill="none" xmlns="http://www.w3.org/2000/svg">
<path d="M23.9688 17.0625H21.7823C21.7458 16.8683 21.7011 16.6782 21.6523 16.4889L25.5515 14.5397C25.9529 14.339 26.1146 13.8507 25.9147 13.4493C25.7132 13.0479 25.2273 12.8871 24.8243 13.0861L21.1047 14.9451C19.6861 11.8836 16.5912 9.75 13 9.75C8.62712 9.75 4.98469 12.909 4.21769 17.0625H2.03125C0.911625 17.0625 0 17.9733 0 19.0938C0 19.4919 0.14625 19.8762 0.410313 20.1736L3.25 23.3683V23.9688C3.25 25.0892 4.16162 26 5.28125 26H20.7188C21.8392 26 22.75 25.0892 22.75 23.9688V23.3683L25.5889 20.1736C25.8538 19.8762 26 19.4919 26 19.0938C26 17.9733 25.0892 17.0625 23.9688 17.0625ZM20.9617 17.0625H20.5051L20.9097 16.8594C20.9251 16.9276 20.9471 16.9934 20.9617 17.0625ZM13 10.5625C16.2736 10.5625 19.0938 12.5125 20.3791 15.3083L19.6552 15.6699C18.5047 13.1389 15.9616 11.375 13 11.375C9.52087 11.375 6.61456 13.8068 5.87437 17.0625H5.03912C5.79394 13.3583 9.07644 10.5625 13 10.5625ZM16.718 17.0625C16.0899 15.6301 14.6616 14.625 13 14.625C11.3384 14.625 9.91087 15.6301 9.282 17.0625H8.40938C9.0805 15.1726 10.8818 13.8125 13 13.8125C15.0028 13.8125 16.7277 15.028 17.4753 16.7594L16.8708 17.0625H16.718ZM13 16.25C12.2826 16.25 11.6431 16.5677 11.1962 17.0625H10.2017C10.7656 16.0964 11.8024 15.4375 13 15.4375C14.1968 15.4375 15.2344 16.0964 15.7974 17.0625H14.8021C14.3569 16.5677 13.7174 16.25 13 16.25ZM13 13C10.4284 13 8.25338 14.716 7.55219 17.0625H6.71369C7.43844 14.2642 9.9775 12.1875 13 12.1875C15.6374 12.1875 17.9099 13.7702 18.9272 16.0339L18.2016 16.3963C17.3176 14.3999 15.3197 13 13 13ZM21.125 22.75V23.9688C21.125 24.193 20.9422 24.375 20.7188 24.375H5.28125C5.057 24.375 4.875 24.193 4.875 23.9688V22.75L1.625 19.0938C1.625 18.8695 1.807 18.6875 2.03125 18.6875H4.0625H4.875H5.6875H6.5H7.3125H8.125H8.9375H9.75H10.5625H15.4375H16.25H17.0625H17.875H18.6875H19.5H20.3125H21.125H21.9375H23.9688C24.1922 18.6875 24.375 18.8695 24.375 19.0938L21.125 22.75Z" fill="#5CAC0E"/>
<path d="M6.48119 9.516C6.48363 9.52087 6.48525 9.52575 6.48769 9.53062H6.48932C6.55675 9.66062 6.69163 9.75 6.84925 9.75C7.07432 9.75 7.25713 9.56637 7.25713 9.34131C7.25713 9.30637 7.25144 9.27225 7.2425 9.23975C7.24413 9.23406 7.24413 9.22919 7.2425 9.2235C6.93782 8.50688 7.22707 7.72038 7.58294 6.87375C7.96725 5.95887 8.37919 4.94325 7.92582 3.91056C7.86813 3.76188 7.72432 3.65625 7.55532 3.65625C7.33513 3.65625 7.15719 3.835 7.15719 4.05437C7.15719 4.10312 7.16694 4.14862 7.18319 4.19169C7.18319 4.19331 7.18319 4.19494 7.184 4.19656C7.18482 4.199 7.18563 4.20144 7.18644 4.20387C7.18807 4.20712 7.18888 4.21037 7.1905 4.21362C7.51875 4.95219 7.20107 5.70944 6.84275 6.56419C6.46413 7.46525 6.04488 8.46381 6.46657 9.48187C6.47144 9.49406 6.4755 9.50462 6.48119 9.516Z" fill="#5CAC0E"/>
<path d="M16.375 9.39739C16.3783 9.40226 16.3799 9.40714 16.3815 9.41201H16.3831C16.4514 9.54201 16.5863 9.6322 16.7431 9.6322C16.9681 9.6322 17.1526 9.44858 17.1526 9.22352C17.1526 9.18858 17.1461 9.15445 17.138 9.12195C17.1396 9.11626 17.1396 9.11139 17.1363 9.1057C16.8333 8.38908 17.1217 7.60258 17.4776 6.75595C17.8619 5.84108 18.2738 4.82545 17.8205 3.79276C17.762 3.64326 17.619 3.53845 17.4491 3.53845C17.2298 3.53845 17.051 3.7172 17.051 3.93658C17.051 3.98533 17.0624 4.03083 17.0778 4.07389C17.0778 4.07551 17.0778 4.07714 17.0778 4.07876C17.0795 4.0812 17.0795 4.08364 17.0811 4.08608C17.0827 4.08933 17.0843 4.09258 17.0843 4.09583C17.4126 4.83439 17.0957 5.59164 16.7366 6.44639C16.3588 7.34745 15.9403 8.34683 16.362 9.36489C16.3661 9.37545 16.3701 9.38683 16.375 9.39739Z" fill="#5CAC0E"/>
<path d="M12.203 5.85975C12.2054 5.86462 12.2071 5.8695 12.2095 5.87437H12.2111C12.2794 6.00437 12.4142 6.09456 12.5711 6.09456C12.7961 6.09456 12.9789 5.91094 12.9789 5.68587C12.9789 5.65094 12.9732 5.61681 12.9643 5.58431C12.9659 5.57863 12.9659 5.57375 12.9643 5.56806C12.6596 4.85144 12.9489 4.06494 13.3047 3.21831C13.6891 2.30344 14.101 1.28781 13.6476 0.255125C13.5891 0.105625 13.4461 0 13.2763 0C13.0569 0 12.8782 0.17875 12.8782 0.398125C12.8782 0.446875 12.8879 0.492375 12.9042 0.535437C12.9042 0.537062 12.9042 0.538688 12.905 0.540313C12.9058 0.54275 12.9066 0.545188 12.9074 0.547625C12.9082 0.550875 12.9099 0.554125 12.9107 0.557375C13.2389 1.29594 12.9212 2.05319 12.5629 2.90794C12.1843 3.809 11.7651 4.80837 12.1876 5.82644C12.1932 5.83781 12.1973 5.84837 12.203 5.85975Z" fill="#5CAC0E"/>
</svg>
