<svg width="24" height="26" viewBox="0 0 24 26" fill="none" xmlns="http://www.w3.org/2000/svg">
<path d="M19.7778 12H4.22222C2.99492 12 2 12.9949 2 14.2222V22C2 23.2273 2.99492 24.2222 4.22222 24.2222H19.7778C21.0051 24.2222 22 23.2273 22 22V14.2222C22 12.9949 21.0051 12 19.7778 12Z" stroke="#333333" stroke-width="3.33333" stroke-linecap="round" stroke-linejoin="round"/>
<path d="M6.44446 12V7.55556C6.44446 6.08213 7.02977 4.66905 8.07164 3.62718C9.11351 2.58532 10.5266 2 12 2C13.4734 2 14.8865 2.58532 15.9284 3.62718C16.9703 4.66905 17.5556 6.08213 17.5556 7.55556V12" stroke="#333333" stroke-width="3.33333" stroke-linecap="round" stroke-linejoin="round"/>
</svg>
